<?xml version="1.0" encoding="UTF-8"?>
<svg version="1.1" xmlns="http://www.w3.org/2000/svg" width="192" height="192">
<path d="M0 0 C19.22548927 -0.16043524 19.22548927 -0.16043524 27.43359375 -0.1953125 C33.02993986 -0.21920492 38.62602368 -0.24744057 44.22216797 -0.30175781 C48.73498785 -0.34528496 53.24752637 -0.3691517 57.76054001 -0.37950897 C59.48051761 -0.38688804 61.20048017 -0.40129779 62.92033768 -0.42292023 C65.33345821 -0.45204629 67.7454228 -0.45595228 70.15869141 -0.45410156 C71.22037033 -0.47567322 71.22037033 -0.47567322 72.30349731 -0.49768066 C78.19748955 -0.44891241 81.47441438 1.82277102 85.8125 5.5625 C88.92393132 9.32896949 88.31757704 14.35550614 88.30078125 18.96875 C87.87739533 23.23560026 86.49726382 25.56626224 84 29 C84.639375 29.598125 85.27875 30.19625 85.9375 30.8125 C89.50136523 34.59235706 89.09398943 38.01856026 89 43 C93.04290478 42.97711563 97.08301092 42.89968892 101.125 42.8125 C102.26710938 42.80669922 103.40921875 42.80089844 104.5859375 42.79492188 C111.63787434 42.74152576 111.63787434 42.74152576 117.7421875 39.63671875 C120.97048713 35.86664565 121.28566867 32.90206074 121.22265625 27.99609375 C120.7553073 23.80635139 118.16035137 20.63362614 115 18 C111.91256756 16.77149409 111.91256756 16.77149409 108.12109375 17.17578125 C96.17991168 17.65787866 96.17991168 17.65787866 92.17919922 14.61523438 C88.7888243 10.93633907 84 5.15061565 84 0 C88.71391399 -0.074557 93.42747929 -0.12879273 98.1418457 -0.16479492 C99.74314356 -0.17981466 101.34440075 -0.20023663 102.94555664 -0.22631836 C105.25677571 -0.26300438 107.56744756 -0.27979435 109.87890625 -0.29296875 C110.58648575 -0.30845261 111.29406525 -0.32393646 112.02308655 -0.33988953 C119.86036541 -0.34250042 125.50044103 2.64949117 131.1328125 7.953125 C137.61706675 15.06138698 138.68077439 22.13105429 138.52172852 31.4519043 C138.10028051 40.55460787 135.11582505 46.58912893 128.9375 53.2734375 C122.62696232 58.89694084 115.70315317 60.14947531 107.48950195 60.11352539 C106.62099609 60.11367142 105.75249023 60.11381744 104.85766602 60.1139679 C101.98451243 60.11327076 99.11142352 60.10548761 96.23828125 60.09765625 C94.24716731 60.09579137 92.25605292 60.09436779 90.26493835 60.09336853 C85.02227514 60.0895489 79.77963959 60.07972332 74.5369873 60.06866455 C68.24776532 60.05664086 61.95853408 60.05204555 55.66930389 60.04621124 C46.11285002 60.0365113 36.55645685 60.01735084 27 60 C27 45.48 27 30.96 27 16 C24.69 16 22.38 16 20 16 C20 30.52 20 45.04 20 60 C13.4 60 6.8 60 0 60 C0 40.2 0 20.4 0 0 Z M43 16 C43 17.98 43 19.96 43 22 C52.24 22 61.48 22 71 22 C71.66 20.68 72.32 19.36 73 18 C71.13910279 15.70738003 71.13910279 15.70738003 68.20263672 15.77294922 C67.04006348 15.78342285 65.87749023 15.79389648 64.6796875 15.8046875 C63.42285156 15.81113281 62.16601562 15.81757812 60.87109375 15.82421875 C58.89302734 15.84935547 58.89302734 15.84935547 56.875 15.875 C55.53516279 15.88503017 54.19531848 15.89415596 52.85546875 15.90234375 C49.57013427 15.92597925 46.28515535 15.95892766 43 16 Z M43 37 C43 38.98 43 40.96 43 43 C52.24 43 61.48 43 71 43 C71.66 41.68 72.32 40.36 73 39 C71.13910279 36.70738003 71.13910279 36.70738003 68.20263672 36.77294922 C67.04006348 36.78342285 65.87749023 36.79389648 64.6796875 36.8046875 C63.42285156 36.81113281 62.16601562 36.81757812 60.87109375 36.82421875 C58.89302734 36.84935547 58.89302734 36.84935547 56.875 36.875 C55.53516279 36.88503017 54.19531848 36.89415596 52.85546875 36.90234375 C49.57013427 36.92597925 46.28515535 36.95892766 43 37 Z " fill="#212D5E" transform="translate(51,58)"/>
<path d="M0 0 C1.21171875 0.00322266 2.4234375 0.00644531 3.671875 0.00976562 C4.94289063 0.01814453 6.21390625 0.02652344 7.5234375 0.03515625 C8.8021875 0.03966797 10.0809375 0.04417969 11.3984375 0.04882812 C14.56512395 0.06064412 17.73178646 0.07858004 20.8984375 0.09765625 C20.8984375 5.37765625 20.8984375 10.65765625 20.8984375 16.09765625 C6.3784375 16.09765625 -8.1415625 16.09765625 -23.1015625 16.09765625 C-21.40474134 12.70401393 -20.81879439 11.56913722 -18.1328125 9.3359375 C-17.56175781 8.85705078 -16.99070312 8.37816406 -16.40234375 7.88476562 C-15.51095703 7.15483398 -15.51095703 7.15483398 -14.6015625 6.41015625 C-14.00730469 5.91193359 -13.41304687 5.41371094 -12.80078125 4.90039062 C-8.08500583 0.9776745 -6.09068001 -0.02846112 0 0 Z " fill="#1B2659" transform="translate(26.1015625,57.90234375)"/>
<path d="M0 0 C0.33 -0.33 0.66 -0.66 1 -1 C5.92271437 -1.30994868 11.26914467 -1.52608236 16 0 C16.33 0.66 16.66 1.32 17 2 C17.33 1.01 17.66 0.02 18 -1 C18.99 -1 19.98 -1 21 -1 C21 0.65 21 2.3 21 4 C22.32 4 23.64 4 25 4 C25 2.35 25 0.7 25 -1 C28.66666667 -1 32.33333333 -1 36 -1 C36 1.31 36 3.62 36 6 C35.360625 5.814375 34.72125 5.62875 34.0625 5.4375 C33.0415625 5.2209375 33.0415625 5.2209375 32 5 C31.67 5.33 31.34 5.66 31 6 C29.43827255 6.08685603 27.87270656 6.10702219 26.30859375 6.09765625 C25.36435547 6.09443359 24.42011719 6.09121094 23.44726562 6.08789062 C22.45404297 6.07951172 21.46082031 6.07113281 20.4375 6.0625 C19.44041016 6.05798828 18.44332031 6.05347656 17.41601562 6.04882812 C14.94395151 6.03700007 12.47200482 6.02051849 10 6 C9.67 5.01 9.34 4.02 9 3 C9 3.99 9 4.98 9 6 C8.01 6 7.02 6 6 6 C6 4.68 6 3.36 6 2 C5.01 2 4.02 2 3 2 C3 3.32 3 4.64 3 6 C-0.63 6 -4.26 6 -8 6 C-8 4.02 -8 2.04 -8 0 C-5.15266466 -1.42366767 -3.07246902 -0.52297345 0 0 Z M-6 2 C-5 4 -5 4 -5 4 Z " fill="#424242" transform="translate(129,128)"/>
<path d="M0 0 C10 0 20 0 30 0 C33 4.07142857 33 4.07142857 33 7 C30.03 7 27.06 7 24 7 C24.33 6.01 24.66 5.02 25 4 C24.34 3.67 23.68 3.34 23 3 C23 4.32 23 5.64 23 7 C22.01 7 21.02 7 20 7 C19.67 6.34 19.34 5.68 19 5 C19 5.66 19 6.32 19 7 C18.360625 6.814375 17.72125 6.62875 17.0625 6.4375 C16.0415625 6.2209375 16.0415625 6.2209375 15 6 C14.67 6.33 14.34 6.66 14 7 C12.00041636 7.04080783 9.99954746 7.04254356 8 7 C8 5.68 8 4.36 8 3 C7.34 3 6.68 3 6 3 C6 4.32 6 5.64 6 7 C5.01 7 4.02 7 3 7 C3 5.68 3 4.36 3 3 C2.01 3 1.02 3 0 3 C0 2.01 0 1.02 0 0 Z " fill="#5E5E5E" transform="translate(31,127)"/>
<path d="M0 0 C8.91 0 17.82 0 27 0 C27 5.28 27 10.56 27 16 C12.48 16 -2.04 16 -17 16 C-15.193388 12.38677599 -14.33581029 11.16251209 -11.375 8.75 C-10.74335938 8.22921875 -10.11171875 7.7084375 -9.4609375 7.171875 C-8.73777344 6.59179688 -8.73777344 6.59179688 -8 6 C-7.34 6.33 -6.68 6.66 -6 7 C-7.98 9.31 -9.96 11.62 -12 14 C6.315 14.495 6.315 14.495 25 15 C25 10.71 25 6.42 25 2 C16.42 2.33 7.84 2.66 -1 3 C-0.67 2.01 -0.34 1.02 0 0 Z " fill="#262F5C" transform="translate(20,58)"/>
<path d="M0 0 C1.670625 0.2475 1.670625 0.2475 3.375 0.5 C6.72032033 1.0455458 6.72032033 1.0455458 9 1 C10.32 1 11.64 1 13 1 C13.33 1.66 13.66 2.32 14 3 C14.37125 2.484375 14.7425 1.96875 15.125 1.4375 C17 0 17 0 20.1875 0.3125 C21.115625 0.539375 22.04375 0.76625 23 1 C23 2.98 23 4.96 23 7 C15.41 7 7.82 7 0 7 C0 4.69 0 2.38 0 0 Z M17 3 C17.33 3.66 17.66 4.32 18 5 C18.33 4.34 18.66 3.68 19 3 C18.34 3 17.68 3 17 3 Z " fill="#4D4D4D" transform="translate(67,127)"/>
<path d="M0 0 C0.33 -0.33 0.66 -0.66 1 -1 C2.68608966 -1.07205511 4.37500659 -1.08386068 6.0625 -1.0625 C6.98160156 -1.05347656 7.90070313 -1.04445313 8.84765625 -1.03515625 C9.55792969 -1.02355469 10.26820313 -1.01195313 11 -1 C11.33 0.32 11.66 1.64 12 3 C11.01 3 10.02 3 9 3 C9 3.99 9 4.98 9 6 C8.01 6 7.02 6 6 6 C6 4.68 6 3.36 6 2 C5.01 2 4.02 2 3 2 C3 3.32 3 4.64 3 6 C-0.63 6 -4.26 6 -8 6 C-8 4.02 -8 2.04 -8 0 C-5.15266466 -1.42366767 -3.07246902 -0.52297345 0 0 Z M-6 2 C-5 4 -5 4 -5 4 Z " fill="#656565" transform="translate(129,128)"/>
<path d="M0 0 C1.19625 0.185625 2.3925 0.37125 3.625 0.5625 C6.53012524 0.94366891 8.419693 0.93005117 11.375 0.4375 C12.24125 0.293125 13.1075 0.14875 14 0 C14.66 0.66 15.32 1.32 16 2 C15.67 3.65 15.34 5.3 15 7 C10.05 7 5.1 7 0 7 C0 4.69 0 2.38 0 0 Z M2 3 C2 3.66 2 4.32 2 5 C2.99 5 3.98 5 5 5 C5 4.34 5 3.68 5 3 C4.01 3 3.02 3 2 3 Z M10 3 C10 3.66 10 4.32 10 5 C10.99 5 11.98 5 13 5 C13 4.34 13 3.68 13 3 C12.01 3 11.02 3 10 3 Z " fill="#464646" transform="translate(166,127)"/>
<path d="M0 0 C1.79244141 0.01740234 1.79244141 0.01740234 3.62109375 0.03515625 C5.41740234 0.04869141 5.41740234 0.04869141 7.25 0.0625 C8.17683594 0.07410156 9.10367187 0.08570312 10.05859375 0.09765625 C10.05859375 1.08765625 10.05859375 2.07765625 10.05859375 3.09765625 C9.39859375 3.09765625 8.73859375 3.09765625 8.05859375 3.09765625 C8.05859375 4.41765625 8.05859375 5.73765625 8.05859375 7.09765625 C7.06859375 7.09765625 6.07859375 7.09765625 5.05859375 7.09765625 C5.05859375 5.77765625 5.05859375 4.45765625 5.05859375 3.09765625 C4.06859375 3.75765625 3.07859375 4.41765625 2.05859375 5.09765625 C1.06859375 5.09765625 0.07859375 5.09765625 -0.94140625 5.09765625 C-0.94140625 5.75765625 -0.94140625 6.41765625 -0.94140625 7.09765625 C-1.93140625 7.09765625 -2.92140625 7.09765625 -3.94140625 7.09765625 C-3.98394981 5.09810879 -3.98221408 3.09723989 -3.94140625 1.09765625 C-2.94140625 0.09765625 -2.94140625 0.09765625 0 0 Z " fill="#595959" transform="translate(18.94140625,126.90234375)"/>
<path d="M0 0 C0.66 0.33 1.32 0.66 2 1 C0.02 3.31 -1.96 5.62 -4 8 C15.305 8.495 15.305 8.495 35 9 C35 9.33 35 9.66 35 10 C20.48 10 5.96 10 -9 10 C-7.193388 6.38677599 -6.33581029 5.16251209 -3.375 2.75 C-2.74335938 2.22921875 -2.11171875 1.7084375 -1.4609375 1.171875 C-0.73777344 0.59179688 -0.73777344 0.59179688 0 0 Z " fill="#7C819B" transform="translate(12,64)"/>
<path d="M0 0 C1.670625 0.2475 1.670625 0.2475 3.375 0.5 C6.94351384 1.26487734 6.94351384 1.26487734 10 0 C10 2.31 10 4.62 10 7 C6.37 7 2.74 7 -1 7 C-1.04254356 5.00045254 -1.04080783 2.99958364 -1 1 C-0.67 0.67 -0.34 0.34 0 0 Z M2 3 C2 3.66 2 4.32 2 5 C2.66 5 3.32 5 4 5 C4 4.34 4 3.68 4 3 C3.34 3 2.68 3 2 3 Z " fill="#3B3B3B" transform="translate(110,127)"/>
<path d="M0 0 C3 1 3 1 4 3 C4.33 2.01 4.66 1.02 5 0 C5.99 0 6.98 0 8 0 C8 1.98 8 3.96 8 6 C8.99 6.33 9.98 6.66 11 7 C6.38 7 1.76 7 -3 7 C-3 6.01 -3 5.02 -3 4 C-2.34 4 -1.68 4 -1 4 C-0.67 2.68 -0.34 1.36 0 0 Z " fill="#424242" transform="translate(142,127)"/>
<path d="M0 0 C3.63 0 7.26 0 11 0 C11.33 0.66 11.66 1.32 12 2 C11.34 2 10.68 2 10 2 C9.67 3.65 9.34 5.3 9 7 C8.67 5.68 8.34 4.36 8 3 C7.34 3 6.68 3 6 3 C6 4.32 6 5.64 6 7 C5.01 7 4.02 7 3 7 C3 5.68 3 4.36 3 3 C2.01 3 1.02 3 0 3 C0 2.01 0 1.02 0 0 Z " fill="#6D6D6D" transform="translate(31,127)"/>
<path d="M0 0 C0 1.98 0 3.96 0 6 C-2.31 6 -4.62 6 -7 6 C-7 4.02 -7 2.04 -7 0 C-4.3333581 -1.33332095 -2.83319697 -0.67102033 0 0 Z " fill="#474747" transform="translate(106,128)"/>
<path d="M0 0 C2.97 0.33 5.94 0.66 9 1 C9.33 2.65 9.66 4.3 10 6 C9.360625 5.814375 8.72125 5.62875 8.0625 5.4375 C7.0415625 5.2209375 7.0415625 5.2209375 6 5 C5.67 5.33 5.34 5.66 5 6 C3.33382885 6.04063832 1.66611905 6.042721 0 6 C0 4.02 0 2.04 0 0 Z " fill="#3B3B3B" transform="translate(40,128)"/>
<path d="M0 0 C11.22 0 22.44 0 34 0 C34 0.33 34 0.66 34 1 C29.64007539 1.14303566 25.2801306 1.2854351 20.92016602 1.42724609 C19.43708739 1.47557386 17.95401441 1.5240752 16.47094727 1.57275391 C14.33871906 1.64270984 12.2064713 1.7120407 10.07421875 1.78125 C8.79119873 1.82314453 7.50817871 1.86503906 6.1862793 1.90820312 C4.12481453 1.96759403 2.06232011 2 0 2 C0 1.34 0 0.68 0 0 Z " fill="#3F4671" transform="translate(135,58)"/>
<path d="M0 0 C-0.33 0.66 -0.66 1.32 -1 2 C-2.32 1.67 -3.64 1.34 -5 1 C-5 2.32 -5 3.64 -5 5 C-4.34 4.34 -3.68 3.68 -3 3 C-1.68 3 -0.36 3 1 3 C1 3.99 1 4.98 1 6 C-1.64 6 -4.28 6 -7 6 C-7 4.02 -7 2.04 -7 0 C-4.3333581 -1.33332095 -2.83319697 -0.67102033 0 0 Z " fill="#3E3E3E" transform="translate(128,128)"/>
<path d="M0 0 C0.66 0 1.32 0 2 0 C2 1.65 2 3.3 2 5 C2.99 5 3.98 5 5 5 C5 3.35 5 1.7 5 0 C5.66 0 6.32 0 7 0 C7 2.31 7 4.62 7 7 C4.69 7 2.38 7 0 7 C0 4.69 0 2.38 0 0 Z " fill="#3D3D3D" transform="translate(91,127)"/>
<path d="M0 0 C0.66 0 1.32 0 2 0 C5 4.38461538 5 4.38461538 5 7 C2.03 7 -0.94 7 -4 7 C-3.67 6.01 -3.34 5.02 -3 4 C-2.34 4 -1.68 4 -1 4 C-0.67 2.68 -0.34 1.36 0 0 Z " fill="#494949" transform="translate(59,127)"/>
<path d="M0 0 C1.67542976 0.28604898 3.34385343 0.61781233 5 1 C5 2.32 5 3.64 5 5 C4.01 5 3.02 5 2 5 C2 5.66 2 6.32 2 7 C1.01 7 0.02 7 -1 7 C-1.04254356 5.00045254 -1.04080783 2.99958364 -1 1 C-0.67 0.67 -0.34 0.34 0 0 Z " fill="#404040" transform="translate(16,127)"/>
<path d="M0 0 C1.32 0.33 2.64 0.66 4 1 C4 2.98 4 4.96 4 7 C1.36 6.67 -1.28 6.34 -4 6 C-2.68 5.67 -1.36 5.34 0 5 C0 3.35 0 1.7 0 0 Z " fill="#6A6A6A" transform="translate(154,127)"/>
<path d="M0 0 C0 0.99 0 1.98 0 3 C-0.66 3 -1.32 3 -2 3 C-2.33 3.66 -2.66 4.32 -3 5 C-3.66 5 -4.32 5 -5 5 C-5.33 4.01 -5.66 3.02 -6 2 C-6.66 2 -7.32 2 -8 2 C-8 1.34 -8 0.68 -8 0 C-5.13822943 -1.43088528 -3.06624227 -0.59991697 0 0 Z " fill="#656565" transform="translate(90,128)"/>
<path d="M0 0 C1.98 0 3.96 0 6 0 C6 1.65 6 3.3 6 5 C4.02 5 2.04 5 0 5 C0 3.35 0 1.7 0 0 Z " fill="#242424" transform="translate(67,129)"/>
<path d="M0 0 C0.66 0.33 1.32 0.66 2 1 C0.90653119 2.34212062 -0.2001575 3.67347975 -1.3125 5 C-2.23482422 6.11375 -2.23482422 6.11375 -3.17578125 7.25 C-5 9 -5 9 -8 9 C-6.4169423 4.7257442 -3.49431596 2.73468206 0 0 Z " fill="#6E707C" transform="translate(12,64)"/>
<path d="M0 0 C0.66 0.99 1.32 1.98 2 3 C2.99 3.33 3.98 3.66 5 4 C5 3.34 5 2.68 5 2 C5.66 2 6.32 2 7 2 C7 2.99 7 3.98 7 5 C3.7 5 0.4 5 -3 5 C-3 4.34 -3 3.68 -3 3 C-2.34 3 -1.68 3 -1 3 C-0.67 2.01 -0.34 1.02 0 0 Z " fill="#303030" transform="translate(83,129)"/>
<path d="M0 0 C2.97 0.495 2.97 0.495 6 1 C5.67 2.65 5.34 4.3 5 6 C4.34 5.67 3.68 5.34 3 5 C3.33 4.34 3.66 3.68 4 3 C3.34 3 2.68 3 2 3 C1.67 3.99 1.34 4.98 1 6 C0.67 4.02 0.34 2.04 0 0 Z " fill="#616161" transform="translate(110,127)"/>
<path d="M0 0 C2.31 0.33 4.62 0.66 7 1 C7.33 2.65 7.66 4.3 8 6 C7.01 6.495 7.01 6.495 6 7 C5.7525 6.360625 5.505 5.72125 5.25 5.0625 C4.18437567 2.81258459 4.18437567 2.81258459 1.875 2.25 C0.946875 2.12625 0.946875 2.12625 0 2 C0 1.34 0 0.68 0 0 Z " fill="#636363" transform="translate(67,127)"/>
<path d="M0 0 C2.475 0.495 2.475 0.495 5 1 C5.33 2.65 5.66 4.3 6 6 C5.34 6 4.68 6 4 6 C3.67 5.01 3.34 4.02 3 3 C2.01 2.67 1.02 2.34 0 2 C0 1.34 0 0.68 0 0 Z " fill="#343434" transform="translate(176,127)"/>
</svg>
