<?xml version="1.0" encoding="UTF-8"?>
<svg version="1.1" xmlns="http://www.w3.org/2000/svg" width="617" height="133">
<path d="M0 0 C29.33732845 -0.16065467 29.33732845 -0.16065467 43.86529922 -0.20101547 C51.71140517 -0.22315072 59.55734037 -0.25121923 67.40332031 -0.30175781 C73.61694595 -0.34176261 79.83044253 -0.36746509 86.04419339 -0.37635398 C89.33110724 -0.38154589 92.61756826 -0.39578752 95.90438461 -0.42292023 C99.58344911 -0.45207538 103.26175602 -0.45595076 106.94091797 -0.45410156 C108.55609566 -0.47567322 108.55609566 -0.47567322 110.2039032 -0.49768066 C118.92956356 -0.45041175 126.32071366 1.3218404 132.9375 7.25 C139.00399308 14.04618919 139.4995354 20.70724546 139.2890625 29.65234375 C138.71629965 36.2855567 136.5148033 41.01814808 132 46 C132.39832031 46.40089844 132.79664063 46.80179688 133.20703125 47.21484375 C139.47094705 53.93597968 141.07549732 59.91383121 141 69 C146.12350369 68.95562079 151.24580141 68.88555343 156.36865234 68.79248047 C158.10846314 68.76439297 159.84839865 68.74311806 161.58837891 68.72900391 C164.1012297 68.70740347 166.61260033 68.66067014 169.125 68.609375 C169.89303955 68.60814636 170.6610791 68.60691772 171.45239258 68.60565186 C177.7542351 68.43776506 183.27343471 66.69183197 187.83984375 62.18359375 C188.20207031 61.60738281 188.56429687 61.03117187 188.9375 60.4375 C189.31777344 59.85871094 189.69804687 59.27992187 190.08984375 58.68359375 C193.11650396 53.08492186 193.01378123 45.68259087 191.3515625 39.64453125 C188.60092725 33.56727302 184.20977566 29.28391026 178.03125 26.8125 C174.70782709 25.92936497 171.69469414 25.99044261 168.26953125 26.1484375 C151.77925263 26.84760904 151.77925263 26.84760904 146.74951172 23.50390625 C143.09180388 19.84524762 140.52806237 15.61287748 138.13476562 11.05371094 C136.96411396 8.93505307 135.64371015 7.04484135 134.203125 5.1015625 C132 2 132 2 132 0 C138.93759035 -0.07649331 145.87507065 -0.12878497 152.81298828 -0.16479492 C155.16980046 -0.17981778 157.52658498 -0.20024196 159.88330078 -0.22631836 C163.28424942 -0.26298821 166.68482621 -0.27979196 170.0859375 -0.29296875 C171.12801361 -0.30845261 172.17008972 -0.32393646 173.2437439 -0.33988953 C185.77731856 -0.34272875 196.43962997 3.51053992 205.6875 12.0625 C215.40005022 22.20029323 217.20489968 32.65550031 217.3125 46.0625 C217.34150391 47.24005859 217.37050781 48.41761719 217.40039062 49.63085938 C217.49203791 62.36983214 213.69028953 72.77396463 205 82.16015625 C193.67724506 92.97743106 180.71232971 95.31443455 165.60742188 95.22705078 C164.26635751 95.22648577 162.92529252 95.22680498 161.58422852 95.22793579 C157.96492796 95.2285068 154.34576148 95.21679361 150.72649193 95.20278788 C146.93619858 95.19023823 143.14590174 95.18910669 139.35559082 95.18673706 C132.187636 95.18053469 125.01974259 95.16414079 117.85181475 95.14403808 C108.15905997 95.1174477 98.46628825 95.10669639 88.77350616 95.09503365 C73.51562483 95.07625923 58.25787305 95.03640532 43 95 C43 72.23 43 49.46 43 26 C39.04 26 35.08 26 31 26 C31 48.77 31 71.54 31 95 C20.77 95 10.54 95 0 95 C0 63.65 0 32.3 0 0 Z M68 26 C68 29.3 68 32.6 68 36 C74.21131774 36.07408447 80.42237905 36.12857114 86.6340332 36.16479492 C88.74768554 36.1798936 90.86130648 36.20037426 92.97485352 36.22631836 C96.01065815 36.26265397 99.04604906 36.27971544 102.08203125 36.29296875 C103.02899368 36.30845261 103.97595612 36.32393646 104.95161438 36.33988953 C105.83230087 36.34011612 106.71298737 36.34034271 107.62036133 36.34057617 C108.39535477 36.34723801 109.17034821 36.35389984 109.96882629 36.36076355 C112.5475923 35.9027403 113.45478395 35.08505257 115 33 C114.75546876 29.65807308 114.39456443 28.39456443 112 26 C110.02060859 25.70863836 110.02060859 25.70863836 107.73388672 25.77294922 C106.85312469 25.77310028 105.97236267 25.77325134 105.06491089 25.77340698 C103.63672531 25.78889084 103.63672531 25.78889084 102.1796875 25.8046875 C101.20589142 25.8075174 100.23209534 25.81034729 99.22879028 25.81326294 C96.11073651 25.82448087 92.99296732 25.8495883 89.875 25.875 C87.76432706 25.88502772 85.65364962 25.89415393 83.54296875 25.90234375 C78.36186909 25.92442547 73.18098283 25.95896626 68 26 Z M68 58 C68 61.63 68 65.26 68 69 C74.1929597 69.12360058 80.38520159 69.21434054 86.57910156 69.2746582 C88.68599961 69.29980212 90.79281043 69.33392207 92.89941406 69.37719727 C95.9279532 69.43785368 98.9553393 69.46621083 101.984375 69.48828125 C102.92617615 69.51408768 103.86797729 69.5398941 104.83831787 69.56648254 C110.31437367 69.65014584 110.31437367 69.65014584 114.62597656 66.46948242 C115.0794043 65.65455322 115.53283203 64.83962402 116 64 C114.24545615 60.81765895 114.24545615 60.81765895 112 58 C110.61839885 57.9072167 109.23211962 57.88252957 107.84741211 57.88647461 C106.96657455 57.88655014 106.085737 57.88662567 105.1782074 57.88670349 C103.74227989 57.89444542 103.74227989 57.89444542 102.27734375 57.90234375 C100.81452721 57.90446617 100.81452721 57.90446617 99.32215881 57.90663147 C96.19390857 57.91224867 93.06572877 57.92480407 89.9375 57.9375 C87.82226666 57.94251278 85.70703219 57.94707607 83.59179688 57.95117188 C78.39450393 57.96222369 73.19726392 57.97949984 68 58 Z " fill="#202B5D" transform="translate(237,6)"/>
<path d="M0 0 C0.82062424 0.00015106 1.64124847 0.00030212 2.48674011 0.00045776 C3.80875175 0.01594162 3.80875175 0.01594162 5.1574707 0.03173828 C6.5161602 0.03598312 6.5161602 0.03598312 7.90229797 0.04031372 C10.79608353 0.05151114 13.6895599 0.07661489 16.58325195 0.10205078 C18.54483603 0.11208115 20.50642495 0.1212069 22.46801758 0.12939453 C27.27747741 0.14974773 32.08626846 0.1888971 36.89575195 0.22705078 C36.89575195 8.47705078 36.89575195 16.72705078 36.89575195 25.22705078 C31.77205365 25.86751307 27.51370628 26.34476601 22.47973633 26.2487793 C21.27909546 26.22868301 20.07845459 26.20858673 18.84143066 26.18788147 C16.93472595 26.14732887 16.93472595 26.14732887 14.98950195 26.10595703 C13.65573002 26.08160984 12.32194876 26.05776872 10.98815918 26.03440857 C7.50290176 25.97202444 4.01781259 25.90283237 0.53271484 25.83215332 C-3.03369584 25.76105328 -6.6002244 25.69648702 -10.16674805 25.63134766 C-17.14604273 25.50292549 -24.12518129 25.36730057 -31.10424805 25.22705078 C-31.10424805 24.23705078 -31.10424805 23.24705078 -31.10424805 22.22705078 C-29.1550293 20.35205078 -29.1550293 20.35205078 -26.41674805 18.22705078 C-25.42288086 17.44201172 -24.42901367 16.65697266 -23.4050293 15.84814453 C-22.87087402 15.42774902 -22.33671875 15.00735352 -21.78637695 14.57421875 C-18.26484316 11.75392506 -14.85912516 8.79336481 -11.43359375 5.85791016 C-4.52593865 -0.02785193 -4.52593865 -0.02785193 0 0 Z " fill="#212C5C" transform="translate(194.104248046875,5.77294921875)"/>
<path d="M0 0 C3.82825694 0.0274427 3.82825694 0.0274427 6.125 1.75 C6.62 2.4925 6.62 2.4925 7.125 3.25 C7.929375 2.5075 7.929375 2.5075 8.75 1.75 C11.80745535 -0.18102443 13.563173 -0.19522837 17.125 0.25 C19.5 1.4375 19.5 1.4375 21.125 3.25 C21.625 5.75 21.625 5.75 21.125 8.25 C18.87548621 10.75907308 17.47249528 11.20656309 14.125 11.625 C10.85656457 11.21644557 9.51276858 10.45409407 7.125 8.25 C6.795 8.745 6.465 9.24 6.125 9.75 C2.91517412 12.15736941 0.06591317 11.50425246 -3.875 11.25 C-4.875 10.25 -4.875 10.25 -5.0078125 8.21875 C-5.00523437 7.4040625 -5.00265625 6.589375 -5 5.75 C-5.00257813 4.9353125 -5.00515625 4.120625 -5.0078125 3.28125 C-4.76738061 -0.39594366 -3.88173778 0.2504347 0 0 Z M-0.875 3.25 C-0.875 4.9 -0.875 6.55 -0.875 8.25 C0.445 8.25 1.765 8.25 3.125 8.25 C3.125 6.6 3.125 4.95 3.125 3.25 C1.805 3.25 0.485 3.25 -0.875 3.25 Z M12.125 3.25 C11.795 4.57 11.465 5.89 11.125 7.25 C13.6 7.745 13.6 7.745 16.125 8.25 C16.455 6.93 16.785 5.61 17.125 4.25 C15.475 3.92 13.825 3.59 12.125 3.25 Z " fill="#484848" transform="translate(422.875,115.75)"/>
<path d="M0 0 C1.91015625 0.1328125 1.91015625 0.1328125 3.91015625 1.1328125 C4.53515625 3.6953125 4.53515625 3.6953125 4.91015625 6.1328125 C6.23015625 4.1528125 7.55015625 2.1728125 8.91015625 0.1328125 C10.66015625 0.1953125 10.66015625 0.1953125 12.91015625 1.1328125 C15.35743091 4.3489944 16.91015625 7.05676154 16.91015625 11.1328125 C13.94015625 10.4728125 10.97015625 9.8128125 7.91015625 9.1328125 C7.91015625 9.7928125 7.91015625 10.4528125 7.91015625 11.1328125 C7.27078125 10.9471875 6.63140625 10.7615625 5.97265625 10.5703125 C4.95171875 10.35375 4.95171875 10.35375 3.91015625 10.1328125 C3.58015625 10.4628125 3.25015625 10.7928125 2.91015625 11.1328125 C1.41277501 11.2307182 -0.08927267 11.26256114 -1.58984375 11.2578125 C-2.40453125 11.26039062 -3.21921875 11.26296875 -4.05859375 11.265625 C-6.08984375 11.1328125 -6.08984375 11.1328125 -7.08984375 10.1328125 C-7.18774945 8.63543126 -7.21959239 7.13338358 -7.21484375 5.6328125 C-7.21742188 4.818125 -7.22 4.0034375 -7.22265625 3.1640625 C-6.93416252 -1.24819461 -3.69410052 0.01340871 0 0 Z M-3.08984375 3.1328125 C0.91015625 4.1328125 0.91015625 4.1328125 0.91015625 4.1328125 Z M9.91015625 4.1328125 C9.91015625 4.7928125 9.91015625 5.4528125 9.91015625 6.1328125 C10.57015625 5.8028125 11.23015625 5.4728125 11.91015625 5.1328125 C11.25015625 4.8028125 10.59015625 4.4728125 9.91015625 4.1328125 Z M-3.08984375 7.1328125 C0.91015625 8.1328125 0.91015625 8.1328125 0.91015625 8.1328125 Z " fill="#515151" transform="translate(269.08984375,115.8671875)"/>
<path d="M0 0 C0.87454834 0.00523682 1.74909668 0.01047363 2.65014648 0.01586914 C3.59438477 0.0190918 4.53862305 0.02231445 5.51147461 0.02563477 C6.50469727 0.03401367 7.49791992 0.04239258 8.52124023 0.05102539 C9.51833008 0.05553711 10.51541992 0.06004883 11.54272461 0.06469727 C14.01478872 0.07652532 16.48673541 0.0930069 18.95874023 0.11352539 C18.95874023 1.10352539 18.95874023 2.09352539 18.95874023 3.11352539 C17.63874023 3.11352539 16.31874023 3.11352539 14.95874023 3.11352539 C14.95874023 5.75352539 14.95874023 8.39352539 14.95874023 11.11352539 C13.96874023 11.11352539 12.97874023 11.11352539 11.95874023 11.11352539 C11.95874023 8.47352539 11.95874023 5.83352539 11.95874023 3.11352539 C10.96874023 3.44352539 9.97874023 3.77352539 8.95874023 4.11352539 C7.91424113 7.24702272 8.02450379 8.10320795 8.95874023 11.11352539 C5.60278195 10.51424713 3.58072798 9.26730104 0.95874023 7.11352539 C0.95874023 8.43352539 0.95874023 9.75352539 0.95874023 11.11352539 C-0.36125977 11.11352539 -1.68125977 11.11352539 -3.04125977 11.11352539 C-3.06814127 9.46777973 -3.087601 7.82191126 -3.10375977 6.17602539 C-3.11536133 5.25950195 -3.12696289 4.34297852 -3.13891602 3.39868164 C-3.01378974 0.47072687 -2.92173804 0.1624935 0 0 Z M0.95874023 3.11352539 C4.95874023 4.11352539 4.95874023 4.11352539 4.95874023 4.11352539 Z " fill="#535353" transform="translate(227.041259765625,115.886474609375)"/>
<path d="M0 0 C1.35421764 0.01720422 2.70840241 0.03757796 4.0625 0.0625 C4.7225 0.0625 5.3825 0.0625 6.0625 0.0625 C9.72916667 0.0625 13.39583333 0.0625 17.0625 0.0625 C17.0625 1.0525 17.0625 2.0425 17.0625 3.0625 C15.7425 3.0625 14.4225 3.0625 13.0625 3.0625 C13.0625 5.7025 13.0625 8.3425 13.0625 11.0625 C11.7425 10.7325 10.4225 10.4025 9.0625 10.0625 C9.0625 8.0825 9.0625 6.1025 9.0625 4.0625 C8.0725 3.7325 7.0825 3.4025 6.0625 3.0625 C5.4025 4.3825 4.7425 5.7025 4.0625 7.0625 C2.4125 7.0625 0.7625 7.0625 -0.9375 7.0625 C-1.2675 8.3825 -1.5975 9.7025 -1.9375 11.0625 C-2.9275 11.0625 -3.9175 11.0625 -4.9375 11.0625 C-4.96438151 9.41675434 -4.98384123 7.77088587 -5 6.125 C-5.01160156 5.20847656 -5.02320313 4.29195313 -5.03515625 3.34765625 C-4.86672464 -0.59364348 -4.15932329 0.066021 0 0 Z " fill="#414141" transform="translate(185.9375,115.9375)"/>
<path d="M0 0 C2.475 0.495 2.475 0.495 5 1 C5.66 1.99 6.32 2.98 7 4 C7.33 2.68 7.66 1.36 8 0 C9.32 0.33 10.64 0.66 12 1 C12 3.97 12 6.94 12 10 C10.68 10.33 9.36 10.66 8 11 C6.25 9.5625 6.25 9.5625 5 8 C4.01 9.485 4.01 9.485 3 11 C2.01 11 1.02 11 0 11 C0 7.37 0 3.74 0 0 Z " fill="#555555" transform="translate(405,116)"/>
<path d="M0 0 C0.99 0.66 1.98 1.32 3 2 C3 2.66 3 3.32 3 4 C0.36 4 -2.28 4 -5 4 C-4.67 4.99 -4.34 5.98 -4 7 C-4 6.34 -4 5.68 -4 5 C-1.69 5 0.62 5 3 5 C3 6.65 3 8.3 3 10 C-0.05693322 11.52846661 -2.62984547 11.23242445 -6 11 C-8.4375 9.8125 -8.4375 9.8125 -10 8 C-10.5 5.5 -10.5 5.5 -10 3 C-7.02226725 -0.3213173 -4.30709925 -0.45820205 0 0 Z " fill="#3F3F3F" transform="translate(357,116)"/>
<path d="M0 0 C2.62576255 0.04235101 3.84003475 0.08080188 6.125 1.4375 C7.49203913 3.91525842 7.54326612 5.46155919 7.125 8.25 C6.125 10.0625 6.125 10.0625 4.125 11.25 C1.36900987 11.55437642 -1.08032189 11.43030181 -3.875 11.25 C-4.875 10.25 -4.875 10.25 -5.0078125 8.21875 C-5.00523437 7.4040625 -5.00265625 6.589375 -5 5.75 C-5.00257813 4.9353125 -5.00515625 4.120625 -5.0078125 3.28125 C-4.76738061 -0.39594366 -3.88173778 0.2504347 0 0 Z M-0.875 3.25 C-0.875 4.9 -0.875 6.55 -0.875 8.25 C0.445 8.25 1.765 8.25 3.125 8.25 C3.125 6.6 3.125 4.95 3.125 3.25 C1.805 3.25 0.485 3.25 -0.875 3.25 Z " fill="#565656" transform="translate(333.875,115.75)"/>
<path d="M0 0 C0.99 0.66 1.98 1.32 3 2 C3 2.66 3 3.32 3 4 C0.03 3.67 -2.94 3.34 -6 3 C-6 4.65 -6 6.3 -6 8 C-5.34 7.67 -4.68 7.34 -4 7 C-4 6.34 -4 5.68 -4 5 C-1.69 5 0.62 5 3 5 C3 6.65 3 8.3 3 10 C-5.03280629 11.42462163 -5.03280629 11.42462163 -8.5625 9.875 C-10 8 -10 8 -10.5 5.5 C-10 3 -10 3 -8.375 1.1875 C-5.35793388 -0.32103306 -3.33598971 -0.35489252 0 0 Z " fill="#323232" transform="translate(296,116)"/>
<path d="M0 0 C3 0.1875 3 0.1875 5 1.1875 C5.484375 2.96484375 5.484375 2.96484375 5.75 5.125 C5.89695312 6.19041016 5.89695312 6.19041016 6.046875 7.27734375 C6 9.1875 6 9.1875 4 11.1875 C0.5 11.4375 0.5 11.4375 -3 11.1875 C-5 9.1875 -5 9.1875 -5.25 5.6875 C-4.93468205 1.27304872 -4.47748899 0.27984306 0 0 Z M-2 6.1875 C-2 6.8475 -2 7.5075 -2 8.1875 C-0.68 7.8575 0.64 7.5275 2 7.1875 C0.68 6.8575 -0.64 6.5275 -2 6.1875 Z " fill="#222222" transform="translate(318,115.8125)"/>
<path d="M0 0 C1.32 0 2.64 0 4 0 C4 2.64 4 5.28 4 8 C5.32 8 6.64 8 8 8 C8 5.36 8 2.72 8 0 C9.32 0 10.64 0 12 0 C12.08096803 1.45742463 12.13917774 2.91612807 12.1875 4.375 C12.22230469 5.18710938 12.25710938 5.99921875 12.29296875 6.8359375 C12.19628906 7.55007812 12.09960938 8.26421875 12 9 C8.53001271 11.31332486 7.07490752 11.33957563 3 11 C2.01 10.34 1.02 9.68 0 9 C-0.29296875 6.8359375 -0.29296875 6.8359375 -0.1875 4.375 C-0.16042969 3.55773437 -0.13335937 2.74046875 -0.10546875 1.8984375 C-0.05326172 0.95871094 -0.05326172 0.95871094 0 0 Z " fill="#3E3E3E" transform="translate(300,116)"/>
<path d="M0 0 C2.25 -0.0625 2.25 -0.0625 5 1 C6.69300427 3.86674844 7.86963623 6.87413371 9 10 C7.68 10.33 6.36 10.66 5 11 C5 10.34 5 9.68 5 9 C3.02 9 1.04 9 -1 9 C-1 9.66 -1 10.32 -1 11 C-1.99 11 -2.98 11 -4 11 C-3.39301257 6.87248551 -1.96189209 3.6678852 0 0 Z " fill="#2F2F2F" transform="translate(249,116)"/>
<path d="M0 0 C1.32 0 2.64 0 4 0 C8 6.5 8 6.5 8 11 C7.01 11 6.02 11 5 11 C5 10.34 5 9.68 5 9 C3.02 9 1.04 9 -1 9 C-1 9.66 -1 10.32 -1 11 C-1.99 11 -2.98 11 -4 11 C-3.39301257 6.87248551 -1.96189209 3.6678852 0 0 Z " fill="#2F2F2F" transform="translate(380,116)"/>
<path d="M0 0 C3.18124627 3.18124627 2.99539172 6.27726867 3.0234375 10.67578125 C3.01570313 11.77277344 3.00796875 12.86976562 3 14 C8.17796403 13.88147885 13.35574683 13.75721232 18.53344727 13.62768555 C20.29382608 13.58444931 22.05424378 13.5427665 23.81469727 13.50268555 C26.34924013 13.44470815 28.88358934 13.38109373 31.41796875 13.31640625 C32.20149216 13.29969376 32.98501556 13.28298126 33.7922821 13.26576233 C37.6332255 13.16229193 41.26179122 12.91421816 45 12 C44.67 12.99 44.34 13.98 44 15 C30.14 15 16.28 15 2 15 C0 4 0 4 0 0 Z " fill="#727991" transform="translate(375,61)"/>
<path d="M0 0 C3.63 0 7.26 0 11 0 C11 0.99 11 1.98 11 3 C9.68 3 8.36 3 7 3 C7 5.64 7 8.28 7 11 C5.68 10.67 4.36 10.34 3 10 C3 8.02 3 6.04 3 4 C2.01 3.67 1.02 3.34 0 3 C0 2.01 0 1.02 0 0 Z " fill="#3F3F3F" transform="translate(366,116)"/>
<path d="M0 0 C2.64 0 5.28 0 8 0 C6.68 0.33 5.36 0.66 4 1 C4 1.66 4 2.32 4 3 C5.65 3 7.3 3 9 3 C9 3.66 9 4.32 9 5 C7.35 5 5.7 5 4 5 C4 5.99 4 6.98 4 8 C5.65 8 7.3 8 9 8 C9 8.66 9 9.32 9 10 C2.84765625 10.09765625 2.84765625 10.09765625 1 10 C0 9 0 9 -0.09765625 6.93359375 C-0.08605469 6.10988281 -0.07445312 5.28617187 -0.0625 4.4375 C-0.05347656 3.61121094 -0.04445313 2.78492187 -0.03515625 1.93359375 C-0.02355469 1.29550781 -0.01195312 0.65742187 0 0 Z " fill="#252525" transform="translate(262,117)"/>
<path d="M0 0 C1.75 0.0625 1.75 0.0625 4 1 C6.44727466 4.2161819 8 6.92394904 8 11 C7.01 11 6.02 11 5 11 C5 10.01 5 9.02 5 8 C3.02 8 1.04 8 -1 8 C-1.625 5.6875 -1.625 5.6875 -2 3 C-1.34 2.01 -0.68 1.02 0 0 Z M1 4 C1 4.66 1 5.32 1 6 C1.66 5.67 2.32 5.34 3 5 C2.34 4.67 1.68 4.34 1 4 Z " fill="#262626" transform="translate(278,116)"/>
<path d="M0 0 C1.32 0.33 2.64 0.66 4 1 C4 3.31 4 5.62 4 8 C5.98 8 7.96 8 10 8 C10 8.99 10 9.98 10 11 C8.52093108 11.02689216 7.04172517 11.04634621 5.5625 11.0625 C4.32693359 11.07990234 4.32693359 11.07990234 3.06640625 11.09765625 C1 11 1 11 0 10 C-0.07205511 8.31391034 -0.08386068 6.62499341 -0.0625 4.9375 C-0.05347656 4.01839844 -0.04445313 3.09929687 -0.03515625 2.15234375 C-0.02355469 1.44207031 -0.01195312 0.73179688 0 0 Z " fill="#353535" transform="translate(389,116)"/>
<path d="M0 0 C3.63 0 7.26 0 11 0 C11 0.99 11 1.98 11 3 C9.68 3 8.36 3 7 3 C7 5.64 7 8.28 7 11 C6.01 11 5.02 11 4 11 C4 8.36 4 5.72 4 3 C2.68 3 1.36 3 0 3 C0 2.01 0 1.02 0 0 Z " fill="#424242" transform="translate(207,116)"/>
<path d="M0 0 C0.99 0.66 1.98 1.32 3 2 C3 2.66 3 3.32 3 4 C0.98177083 3.90234375 -1.03645833 3.8046875 -3.0546875 3.70703125 C-3.69664062 3.80371094 -4.33859375 3.90039062 -5 4 C-5.99 5.485 -5.99 5.485 -7 7 C-7.33 6.34 -7.66 5.68 -8 5 C-8.66 5.99 -9.32 6.98 -10 8 C-10.25 5.6875 -10.25 5.6875 -10 3 C-7.02226725 -0.3213173 -4.30709925 -0.45820205 0 0 Z " fill="#4A4A4A" transform="translate(357,116)"/>
<path d="M0 0 C1.32 0 2.64 0 4 0 C4 2.64 4 5.28 4 8 C5.32 8.33 6.64 8.66 8 9 C5.6875 10.125 5.6875 10.125 3 11 C2.01 10.34 1.02 9.68 0 9 C-0.29296875 6.8359375 -0.29296875 6.8359375 -0.1875 4.375 C-0.16042969 3.55773437 -0.13335937 2.74046875 -0.10546875 1.8984375 C-0.05326172 0.95871094 -0.05326172 0.95871094 0 0 Z " fill="#4A4A4A" transform="translate(300,116)"/>
<path d="M0 0 C1.65 0 3.3 0 5 0 C4.01 0.495 4.01 0.495 3 1 C3.33 1.66 3.66 2.32 4 3 C4.99 3.33 5.98 3.66 7 4 C6.34 4.66 5.68 5.32 5 6 C4.3574765 8.06874034 4.3574765 8.06874034 4 10 C2.68 10 1.36 10 0 10 C0 6.7 0 3.4 0 0 Z " fill="#303030" transform="translate(224,117)"/>
<path d="M0 0 C1.32 0.33 2.64 0.66 4 1 C4 3.97 4 6.94 4 10 C2.68 10.33 1.36 10.66 0 11 C0 7.37 0 3.74 0 0 Z " fill="#3D3D3D" transform="translate(219,116)"/>
<path d="M0 0 C0.99 0 1.98 0 3 0 C3 3.63 3 7.26 3 11 C1.68 10.67 0.36 10.34 -1 10 C-1.02689216 8.52093108 -1.04634621 7.04172517 -1.0625 5.5625 C-1.07410156 4.73878906 -1.08570313 3.91507812 -1.09765625 3.06640625 C-1 1 -1 1 0 0 Z " fill="#2B2B2B" transform="translate(362,116)"/>
<path d="M0 0 C0.99 0 1.98 0 3 0 C3 3.63 3 7.26 3 11 C1.68 10.67 0.36 10.34 -1 10 C-1.02689216 8.52093108 -1.04634621 7.04172517 -1.0625 5.5625 C-1.07410156 4.73878906 -1.08570313 3.91507812 -1.09765625 3.06640625 C-1 1 -1 1 0 0 Z " fill="#313131" transform="translate(343,116)"/>
<path d="M0 0 C0.8971875 0.31324219 0.8971875 0.31324219 1.8125 0.6328125 C-2.52021206 5.55814476 -5.65719546 8.43336881 -12.1875 9.6328125 C-4.47383642 -0.7509654 -4.47383642 -0.7509654 0 0 Z " fill="#595B6F" transform="translate(189.1875,8.3671875)"/>
<path d="M0 0 C0.99 0 1.98 0 3 0 C3 2.97 3 5.94 3 9 C1.68 9.33 0.36 9.66 -1 10 C-1.33 8.68 -1.66 7.36 -2 6 C-1.34 6 -0.68 6 0 6 C0 4.02 0 2.04 0 0 Z " fill="#131313" transform="translate(414,117)"/>
<path d="M0 0 C3.0625 0.125 3.0625 0.125 5.0625 1.125 C4.7325 2.445 4.4025 3.765 4.0625 5.125 C3.4025 5.125 2.7425 5.125 2.0625 5.125 C2.0625 4.465 2.0625 3.805 2.0625 3.125 C-0.2475 3.785 -2.5575 4.445 -4.9375 5.125 C-3.81691788 0.16242204 -3.81691788 0.16242204 0 0 Z " fill="#525252" transform="translate(317.9375,115.875)"/>
<path d="M0 0 C0.33 0.66 0.66 1.32 1 2 C4.34252724 2.07427838 6.8035914 2.06546953 10 1 C10 2.32 10 3.64 10 5 C7.26094655 6.36952673 5.02912668 6.12621361 2 6 C1.34 5.67 0.68 5.34 0 5 C0 3.35 0 1.7 0 0 Z " fill="#2E2E2E" transform="translate(432,121)"/>
<path d="M0 0 C0.99 0 1.98 0 3 0 C3 3.63 3 7.26 3 11 C2.01 11 1.02 11 0 11 C0 7.37 0 3.74 0 0 Z " fill="#2F2F2F" transform="translate(400,116)"/>
<path d="M0 0 C2.64 0 5.28 0 8 0 C8.625 2.3125 8.625 2.3125 9 5 C8.01 6.485 8.01 6.485 7 8 C7 6.35 7 4.7 7 3 C5.68 3 4.36 3 3 3 C3 4.65 3 6.3 3 8 C2.67 8 2.34 8 2 8 C2.04125 7.05125 2.0825 6.1025 2.125 5.125 C2.34973818 1.89755144 2.34973818 1.89755144 0 0 Z " fill="#545454" transform="translate(419,116)"/>
<path d="M0 0 C1.32 0.33 2.64 0.66 4 1 C3.67 2.98 3.34 4.96 3 7 C3.99 7 4.98 7 6 7 C6 7.66 6 8.32 6 9 C3.03 8.505 3.03 8.505 0 8 C0 5.36 0 2.72 0 0 Z " fill="#070707" transform="translate(418,117)"/>
<path d="M0 0 C3.3 0 6.6 0 10 0 C10 0.66 10 1.32 10 2 C8.68 2 7.36 2 6 2 C6 4.64 6 7.28 6 10 C5.34 10 4.68 10 4 10 C4 7.03 4 4.06 4 1 C2.68 0.67 1.36 0.34 0 0 Z " fill="#242424" transform="translate(236,117)"/>
<path d="M0 0 C1.98 0 3.96 0 6 0 C4.02 0.99 4.02 0.99 2 2 C2 3.65 2 5.3 2 7 C3.32 7.66 4.64 8.32 6 9 C4.02 9 2.04 9 0 9 C0 6.03 0 3.06 0 0 Z " fill="#191919" transform="translate(331,117)"/>
<path d="M0 0 C1.875 0.1875 1.875 0.1875 4 1 C5.25 3.5625 5.25 3.5625 6 6 C5.38125 5.79375 4.7625 5.5875 4.125 5.375 C3.42375 5.25125 2.7225 5.1275 2 5 C1.34 5.66 0.68 6.32 0 7 C-0.66 5.68 -1.32 4.36 -2 3 C-1.34 2.01 -0.68 1.02 0 0 Z " fill="#494949" transform="translate(278,116)"/>
<path d="M0 0 C0.33 0 0.66 0 1 0 C1.125 3.375 1.125 3.375 1 7 C-1 9 -1 9 -2.9453125 9.1953125 C-4.96354167 9.13020833 -6.98177083 9.06510417 -9 9 C-9.33 8.34 -9.66 7.68 -10 7 C-7.03 7.495 -7.03 7.495 -4 8 C-4 7.34 -4 6.68 -4 6 C-3.01 6 -2.02 6 -1 6 C-0.67 4.02 -0.34 2.04 0 0 Z " fill="#3B3B3B" transform="translate(428,118)"/>
<path d="M0 0 C0.33 0.99 0.66 1.98 1 3 C-0.98 3.66 -2.96 4.32 -5 5 C-5.66 4.34 -6.32 3.68 -7 3 C-7 2.01 -7 1.02 -7 0 C-4.3333581 -1.33332095 -2.83319697 -0.67102033 0 0 Z M-4 0 C-4 0.66 -4 1.32 -4 2 C-2.68 1.67 -1.36 1.34 0 1 C-1.32 0.67 -2.64 0.34 -4 0 Z " fill="#4F4F4F" transform="translate(320,122)"/>
<path d="M0 0 C5.625 -0.25 5.625 -0.25 9 2 C9 2.66 9 3.32 9 4 C6.03 3.67 3.06 3.34 0 3 C0 2.01 0 1.02 0 0 Z " fill="#4A4A4A" transform="translate(290,116)"/>
<path d="M0 0 C0.66 0.66 1.32 1.32 2 2 C3.98821313 2.39764263 5.98944339 2.73775349 8 3 C7.67 3.66 7.34 4.32 7 5 C5.35 4.67 3.7 4.34 2 4 C2 4.66 2 5.32 2 6 C1.01 6 0.02 6 -1 6 C-1.33 4.35 -1.66 2.7 -2 1 C-1.34 0.67 -0.68 0.34 0 0 Z " fill="#6E6E6E" transform="translate(275,121)"/>
<path d="M0 0 C0.33 0.99 0.66 1.98 1 3 C-0.4375 5.6875 -0.4375 5.6875 -2 8 C-2.99 7.67 -3.98 7.34 -5 7 C-5.1875 4.625 -5.1875 4.625 -5 2 C-2 0 -2 0 0 0 Z " fill="#4E4E4E" transform="translate(434,117)"/>
<path d="M0 0 C2.125 0.375 2.125 0.375 4 1 C3.01 1.495 3.01 1.495 2 2 C1.34444881 4.52733235 1.34444881 4.52733235 1 7 C0.01 7 -0.98 7 -2 7 C-2.125 4.625 -2.125 4.625 -2 2 C-1.34 1.34 -0.68 0.68 0 0 Z " fill="#2A2A2A" transform="translate(288,117)"/>
<path d="M0 0 C2.125 0.375 2.125 0.375 4 1 C3.34 2.65 2.68 4.3 2 6 C1.34 5.34 0.68 4.68 0 4 C-0.66 4.99 -1.32 5.98 -2 7 C-2.125 4.625 -2.125 4.625 -2 2 C-1.34 1.34 -0.68 0.68 0 0 Z " fill="#525252" transform="translate(349,117)"/>
<path d="M0 0 C1.98 0 3.96 0 6 0 C6.33 0.99 6.66 1.98 7 3 C4.69 3 2.38 3 0 3 C0 2.01 0 1.02 0 0 Z " fill="#303030" transform="translate(434,116)"/>
<path d="M0 0 C2 2 2 2 2 6 C1.01 6 0.02 6 -1 6 C-1 5.34 -1 4.68 -1 4 C-2.98 4 -4.96 4 -7 4 C-7 3.67 -7 3.34 -7 3 C-4.69 3 -2.38 3 0 3 C0 2.01 0 1.02 0 0 Z " fill="#717171" transform="translate(386,121)"/>
<path d="M0 0 C1.65 0.33 3.3 0.66 5 1 C4.34 2.32 3.68 3.64 3 5 C1.68 4.67 0.36 4.34 -1 4 C-0.67 2.68 -0.34 1.36 0 0 Z " fill="#5B5B5B" transform="translate(249,116)"/>
<path d="M0 0 C0.33 0 0.66 0 1 0 C1 1.65 1 3.3 1 5 C2.32 5.33 3.64 5.66 5 6 C4.34 6 3.68 6 3 6 C3 6.66 3 7.32 3 8 C0.525 7.01 0.525 7.01 -2 6 C-1.34 5.67 -0.68 5.34 0 5 C0 3.35 0 1.7 0 0 Z " fill="#555555" transform="translate(289,119)"/>
<path d="M0 0 C2.64 0.66 5.28 1.32 8 2 C8 2.33 8 2.66 8 3 C6.02 3 4.04 3 2 3 C2 3.66 2 4.32 2 5 C1.01 5 0.02 5 -1 5 C-0.67 3.35 -0.34 1.7 0 0 Z " fill="#646464" transform="translate(246,122)"/>
<path d="M0 0 C-0.33 1.32 -0.66 2.64 -1 4 C-1.66 4 -2.32 4 -3 4 C-3 3.01 -3 2.02 -3 1 C-4.32 0.67 -5.64 0.34 -7 0 C-4.3333581 -1.33332095 -2.83319697 -0.67102033 0 0 Z " fill="#3A3A3A" transform="translate(323,117)"/>
<path d="M0 0 C1.32 0 2.64 0 4 0 C3.67 0.66 3.34 1.32 3 2 C2.34 1.67 1.68 1.34 1 1 C1 1.66 1 2.32 1 3 C1.66 3 2.32 3 3 3 C3 3.66 3 4.32 3 5 C2.34 5 1.68 5 1 5 C0.67 5.66 0.34 6.32 0 7 C-1.125 2.25 -1.125 2.25 0 0 Z " fill="#5A5A5A" transform="translate(380,116)"/>
</svg>
